<?xml version="1.0" encoding="utf-8"?>
<!-- Generator: Adobe Illustrator 15.0.0, SVG Export Plug-In . SVG Version: 6.00 Build 0)  -->
<!DOCTYPE svg PUBLIC "-//W3C//DTD SVG 1.1//EN" "http://www.w3.org/Graphics/SVG/1.1/DTD/svg11.dtd">
<svg version="1.1" id="Layer_1" xmlns="http://www.w3.org/2000/svg" xmlns:xlink="http://www.w3.org/1999/xlink" x="0px" y="0px"
	 width="570.02px" height="51.44px" viewBox="0 0 570.02 51.44" enable-background="new 0 0 570.02 51.44" xml:space="preserve">
<g>
	<g>
		<path d="M17.301,2.145h7.245l15.923,47.467h-6.188l-4.075-12.074H11.339L7.264,49.612H1L17.301,2.145z M12.924,32.859h15.772
			L20.848,9.464L12.924,32.859z"/>
		<path d="M56.995,2.145l23.545,38.11V2.145h5.962v47.467h-6.641L55.938,10.974v38.638h-6.037V2.145H56.995z"/>
		<path d="M118.499,1.314c6.138,0,11.105,2.102,14.904,6.302c3.798,4.202,5.698,10.313,5.698,18.338s-1.886,14.112-5.66,18.262
			c-3.773,4.15-8.754,6.226-14.942,6.226c-6.188,0-11.156-2.1-14.904-6.301c-3.749-4.2-5.622-10.275-5.622-18.225
			c0-8,1.873-14.099,5.622-18.301C107.343,3.416,112.311,1.314,118.499,1.314z M118.499,6.672c-4.427,0-7.924,1.661-10.489,4.98
			c-2.566,3.32-3.849,8.101-3.849,14.339c0,6.239,1.283,10.968,3.849,14.187c2.565,3.221,6.062,4.83,10.489,4.83
			c4.426,0,7.936-1.609,10.528-4.83c2.59-3.218,3.886-7.948,3.886-14.187c0-6.238-1.296-11.019-3.886-14.339
			C126.435,8.333,122.925,6.672,118.499,6.672z"/>
		<path d="M143.327,2.145h36.902v5.131h-15.47v42.336h-5.961V7.276h-15.47V2.145z"/>
		<path d="M194.266,2.145v20.904h23.319V2.145h5.962v47.467h-5.962V28.18h-23.319v21.432h-5.962V2.145H194.266z"/>
		<path d="M238.713,2.145h29.206v5.131h-23.244V23.2h21.886v5.056h-21.886v16.149h23.244v5.207h-29.206V2.145z"/>
		<path d="M314.254,15.729c0,3.924-1.045,7.093-3.132,9.508c-2.089,2.416-5.17,3.975-9.244,4.679l13.584,19.696h-7.698
			l-12.301-19.395h-8.301v19.395H281.2V2.145h16.526c5.332,0,9.42,1.283,12.264,3.848C312.832,8.559,314.254,11.804,314.254,15.729z
			 M297.273,26.067c3.572,0,6.276-0.868,8.113-2.604c1.836-1.735,2.755-4.024,2.755-6.867c0-2.842-0.895-5.106-2.68-6.792
			c-1.786-1.685-4.365-2.528-7.735-2.528h-10.564v18.791H297.273z"/>
		<path d="M372.55,6.106c2.742,2.641,4.114,6.201,4.114,10.678c0,4.478-1.372,8.012-4.114,10.603
			c-2.742,2.592-6.729,3.887-11.96,3.887h-9.358v18.338h-5.962V2.145h15.32C365.82,2.145,369.808,3.465,372.55,6.106z
			 M360.59,26.142c3.269,0,5.746-0.83,7.433-2.49c1.686-1.66,2.528-3.936,2.528-6.829c0-2.893-0.843-5.208-2.528-6.943
			c-1.687-1.736-4.164-2.604-7.433-2.604h-9.358v18.866H360.59z"/>
		<path d="M387.228,2.145h5.962v47.467h-5.962V2.145z"/>
		<path d="M415.301,2.145l23.545,38.11V2.145h5.962v47.467h-6.642l-23.923-38.638v38.638h-6.037V2.145H415.301z"/>
		<path d="M494.462,1.314c5.082,0,9.17,1.271,12.265,3.812c3.094,2.541,5.219,5.848,6.376,9.924l-6.414,1.283
			c-1.008-2.968-2.58-5.32-4.717-7.056c-2.139-1.735-4.642-2.604-7.51-2.604c-3.974,0-7.27,1.661-9.884,4.98
			c-2.618,3.32-3.925,7.937-3.925,13.848c0,5.912,1.17,10.654,3.508,14.225c2.34,3.573,5.772,5.358,10.301,5.358
			c3.774,0,6.756-0.994,8.943-2.98c2.188-1.987,3.283-4.615,3.283-7.887h6.414c0,4.98-1.698,8.932-5.094,11.848
			c-3.396,2.918-8.05,4.377-13.961,4.377c-5.913,0-10.69-2.264-14.339-6.791c-3.647-4.528-5.471-10.591-5.471-18.188
			c0-7.596,1.887-13.521,5.659-17.772C483.672,3.44,488.526,1.314,494.462,1.314z"/>
		<path d="M537.251,12.634c5.031,0,9.094,1.635,12.188,4.905c3.094,3.271,4.64,7.95,4.64,14.036c0,6.038-1.546,10.691-4.64,13.962
			c-3.095,3.27-7.157,4.904-12.188,4.904s-9.093-1.635-12.188-4.904c-3.094-3.271-4.64-7.924-4.64-13.962
			c0-6.086,1.546-10.765,4.64-14.036C528.158,14.269,532.22,12.634,537.251,12.634z M548.043,31.538
			c0-4.301-0.906-7.671-2.717-10.113c-1.812-2.439-4.466-3.66-7.962-3.66c-3.498,0-6.177,1.22-8.036,3.66
			c-1.862,2.441-2.792,5.812-2.792,10.113c0,4.302,0.879,7.673,2.64,10.113c1.762,2.439,4.39,3.66,7.888,3.66
			c3.495,0,6.199-1.221,8.111-3.66C547.086,39.211,548.043,35.84,548.043,31.538z"/>
		<path d="M564.53,50.292c-1.283,0-2.34-0.416-3.169-1.245c-0.83-0.831-1.245-1.837-1.245-3.019s0.415-2.189,1.245-3.02
			c0.829-0.83,1.886-1.245,3.169-1.245c1.284,0,2.351,0.415,3.208,1.245c0.855,0.83,1.281,1.838,1.281,3.02
			s-0.426,2.188-1.281,3.019C566.881,49.875,565.814,50.292,564.53,50.292z"/>
	</g>
	<rect x="523.266" y="0.999" width="28" height="5"/>
</g>
</svg>
